# xmcd
#
# Track frame offsets: 
#        150
#        19853
#        44875
#        62564
#        81919
#        98587
#        122300
#        140701
#        161600
#        174540
#        188974
#        213288
#
# Disc length: 3021 seconds
#
# Revision: 0
# Processed by: cddbd v1.5.2PL0 Copyright (c) Steve Scherf et al.
# Submitted via: ExactAudioCopy v1.0b1
#
DISCID=a40bcb0c
DTITLE=Stray  - Stand Up And Be Counted [1975]-(Castle Remaster-2007) 
DTITLE=
DYEAR=1900
DGENRE=
TTITLE0=Stand Up And Be Counted
TTITLE1=For The People
TTITLE2=As Long As You Feel Good
TTITLE3=Waiting For The Big Break
TTITLE4=Precious Love
TTITLE5=Smile
TTITLE6=Maybe You Do
TTITLE7=Down, Down, Down
TTITLE8=Woolie
TTITLE9=Everyday Of My Life
TTITLE10=The End
TTITLE11=Recover
EXTD=
EXTT0=
EXTT1=
EXTT2=
EXTT3=
EXTT4=
EXTT5=
EXTT6=
EXTT7=
EXTT8=
EXTT9=
EXTT10=
EXTT11=
PLAYORDER=
